<svg width="148" height="16" viewBox="0 0 148 16" fill="none" xmlns="http://www.w3.org/2000/svg">
  <!-- T -->
  <path d="M0 1.5H8.5V3H5.1V14H3.4V3H0V1.5Z" fill="black"/>
  <!-- O -->
  <path d="M11.2 3.5L13.2 1.5H17.8L19.8 3.5V12L17.8 14H13.2L11.2 12V3.5ZM12.9 3.5V12L13.9 13H17.1L18.1 12V3.5L17.1 2.5H13.9L12.9 3.5Z" fill="black"/>
  <!-- N -->
  <path d="M22.5 14V1.5H24L30.5 11V1.5H32.2V14H30.7L24.2 4.5V14H22.5Z" fill="black"/>
  <!-- separator -->
  <rect x="37" y="6.5" width="3" height="1.5" rx="0.5" fill="black" opacity="0.4"/>
  <!-- N -->
  <path d="M45 14V1.5H46.5L53 11V1.5H54.7V14H53.2L46.7 4.5V14H45Z" fill="black"/>
  <!-- A -->
  <path d="M57.5 14L62 1.5H63.8L68.3 14H66.5L65.5 11H60.3L59.3 14H57.5ZM60.8 9.5H65L62.9 3.5L60.8 9.5Z" fill="black"/>
  <!-- N -->
  <path d="M70.5 14V1.5H72L78.5 11V1.5H80.2V14H78.7L72.2 4.5V14H70.5Z" fill="black"/>
  <!-- O -->
  <path d="M83.7 3.5L85.7 1.5H90.3L92.3 3.5V12L90.3 14H85.7L83.7 12V3.5ZM85.4 3.5V12L86.4 13H89.6L90.6 12V3.5L89.6 2.5H86.4L85.4 3.5Z" fill="black"/>
  <!-- separator -->
  <rect x="97" y="6.5" width="3" height="1.5" rx="0.5" fill="black" opacity="0.4"/>
  <!-- P -->
  <path d="M105 14V1.5H111L113 3.5V7.5L111 9.5H106.7V14H105ZM106.7 3V8H110.3L111.3 7V4L110.3 3H106.7Z" fill="black"/>
  <!-- A -->
  <path d="M115.5 14L120 1.5H121.8L126.3 14H124.5L123.5 11H118.3L117.3 14H115.5ZM118.8 9.5H123L120.9 3.5L118.8 9.5Z" fill="black"/>
  <!-- Y -->
  <path d="M128.5 1.5L132.5 8.5V14H130.8V8.5L126.8 1.5H128.8L131.7 6.5L134.6 1.5H136.5L132.5 8.5" fill="black"/>
</svg>
